<?xml version="1.0" encoding="utf-8"?>
<!-- Generator: Adobe Illustrator 19.0.1, SVG Export Plug-In . SVG Version: 6.00 Build 0)  -->
<svg version="1.1" id="Ebene_1" xmlns="http://www.w3.org/2000/svg" xmlns:xlink="http://www.w3.org/1999/xlink" x="0px" y="0px"
	 width="294.61px" height="28.35px" viewBox="0 0 294.61 28.35" enable-background="new 0 0 294.61 28.35" xml:space="preserve">
<g>
	<path fill="#FFFFFF" d="M236.74,9.61V7.39h-9.5v13.88h9.56v-2.22h-6.93v-3.93h6.51v-1.94h-6.51V9.61H236.74z M226.08,9.61V7.39
		h-9.19v13.88h2.63v-5.71h6.23v-2.22h-6.23V9.61H226.08z M206.57,7.39v13.88h9.14v-2.36h-6.51V7.39H206.57z M201.93,21.28h2.63V7.39
		h-2.63V21.28z M197.31,7.39v5.66h-6.51V7.39h-2.64v13.88h2.64v-6h6.51v6h2.63V7.39H197.31z M186.35,10.91c0-1.44-0.36-2.4-1.09-2.9
		c-0.72-0.5-2.13-0.74-4.22-0.74c-2.2,0-3.67,0.27-4.41,0.81c-0.74,0.54-1.1,1.62-1.1,3.24c0,1.59,0.31,2.62,0.92,3.1
		c0.61,0.48,2.01,0.79,4.21,0.91l1.45,0.09c0.82,0.05,1.36,0.18,1.6,0.4c0.25,0.22,0.37,0.67,0.37,1.34c0,0.91-0.16,1.49-0.49,1.74
		c-0.32,0.25-1.08,0.38-2.26,0.38c-1.51,0-2.44-0.11-2.78-0.33c-0.34-0.22-0.51-0.81-0.51-1.78l-0.01-0.29h-2.56l0.01,0.51
		c0,1.61,0.36,2.68,1.07,3.21c0.71,0.53,2.16,0.79,4.35,0.79c2.43,0,4-0.27,4.71-0.81s1.07-1.73,1.07-3.57c0-1.5-0.3-2.49-0.91-2.96
		c-0.61-0.48-1.94-0.77-4.01-0.89c-1.75-0.1-2.78-0.23-3.09-0.41c-0.31-0.18-0.47-0.7-0.47-1.58c0-0.74,0.19-1.22,0.57-1.45
		c0.38-0.23,1.2-0.35,2.45-0.35c1.06,0,1.73,0.1,2.01,0.3c0.29,0.2,0.46,0.69,0.52,1.47c0,0.06,0.01,0.16,0.02,0.28h2.57V10.91z
		 M168.18,15.84h3.49l-0.01,0.57c0,1.19-0.2,1.94-0.58,2.26c-0.39,0.32-1.3,0.48-2.74,0.48c-1.48,0-2.42-0.19-2.83-0.57
		c-0.41-0.38-0.61-1.25-0.61-2.63l-0.02-1.78l0.01-1.39c0-1.4,0.21-2.3,0.62-2.67c0.41-0.38,1.38-0.57,2.9-0.57
		c1.4,0,2.28,0.11,2.63,0.33c0.35,0.22,0.55,0.78,0.6,1.69h2.66c0-1.8-0.36-2.97-1.08-3.49c-0.72-0.53-2.31-0.79-4.78-0.79
		c-1.89,0-3.22,0.17-4.01,0.51c-0.79,0.34-1.37,1-1.76,1.97c-0.31,0.8-0.47,2.72-0.47,5.76c0,2.38,0.39,3.96,1.17,4.73
		c0.78,0.77,2.37,1.16,4.77,1.16c2.62,0,4.3-0.29,5.06-0.87c0.76-0.58,1.13-1.87,1.13-3.88l-0.04-2.76h-6.11V15.84z M157.96,7.39
		v7.99l0.02,1.79l0.03,0.9l0.03,0.9h-0.09l-0.53-1.14l-0.53-1.13c-0.42-0.89-0.79-1.64-1.11-2.27l-3.61-7.04h-4.47v13.88h2.64v-7.96
		l-0.02-1.82l-0.03-0.91l-0.04-0.92h0.1l0.44,1l0.45,1c0.42,0.95,0.73,1.61,0.93,1.99l3.97,7.62h4.46V7.39H157.96z M143.1,16.68
		c0,1.09-0.18,1.77-0.53,2.04c-0.36,0.28-1.23,0.42-2.62,0.42c-1.36,0-2.22-0.14-2.58-0.41c-0.37-0.28-0.55-0.92-0.55-1.95V7.39
		h-2.64v9.39c0,1.9,0.38,3.14,1.13,3.73c0.75,0.59,2.34,0.88,4.76,0.88c2.29,0,3.81-0.31,4.55-0.94c0.74-0.62,1.11-1.9,1.11-3.83
		V7.39h-2.63V16.68z M123.95,7.39v13.88h9.14v-2.36h-6.51V7.39H123.95z M110.55,7.39v13.88h2.63v-6.01h1.26l5.09,6.01h3.38
		l-6.19-7.14l5.6-6.74h-3.28l-4.62,5.65h-1.24V7.39H110.55z M106.56,16.95c0,0.92-0.19,1.52-0.58,1.79
		c-0.39,0.27-1.24,0.41-2.55,0.41c-1.61,0-2.57-0.24-2.86-0.73c-0.29-0.49-0.44-2.06-0.44-4.72c0-1.97,0.16-3.16,0.49-3.56
		s1.31-0.6,2.94-0.6c1.22,0,2,0.13,2.34,0.38c0.34,0.25,0.51,0.84,0.51,1.74v0.36h2.64l-0.01-0.32c0-1.76-0.33-2.94-1-3.53
		c-0.66-0.59-1.99-0.89-3.97-0.89c-2.72,0-4.51,0.36-5.36,1.08c-0.85,0.72-1.28,2.23-1.28,4.52c0,3.89,0.32,6.29,0.95,7.18
		c0.63,0.89,2.32,1.34,5.06,1.34c2.41,0,3.97-0.28,4.68-0.85c0.7-0.57,1.06-1.82,1.06-3.75v-0.48h-2.64L106.56,16.95z M93.18,21.28
		h2.63V7.39h-2.63V21.28z M89.36,7.39L87.31,15c-0.14,0.54-0.3,1.21-0.48,2.03l-0.21,1.02l-0.22,1.02h-0.08l-0.24-1.02l-0.23-1.01
		c-0.17-0.7-0.34-1.37-0.52-2.02l-2.08-7.63h-3.09L78,15.02c-0.23,0.82-0.41,1.49-0.54,2.02l-0.24,1.01
		c-0.05,0.23-0.14,0.57-0.24,1.02h-0.09l-0.2-1.02l-0.21-1.02c-0.18-0.86-0.34-1.54-0.46-2.02l-2-7.62h-2.68l3.6,13.88h3.86
		l1.98-7.11c0.16-0.58,0.31-1.15,0.46-1.73l0.19-0.85l0.2-0.86h0.09l0.19,0.85c0.24,1.08,0.44,1.94,0.62,2.58l1.93,7.12h3.89
		l3.71-13.88H89.36z M70.76,9.75V7.39H59.96v2.36h4.01v11.52h2.64V9.75H70.76z M56.16,7.39v7.99l0.02,1.79l0.03,0.9l0.03,0.9h-0.09
		l-0.53-1.14l-0.53-1.13c-0.42-0.89-0.79-1.64-1.11-2.27l-3.61-7.04h-4.47v13.88h2.63v-7.96l-0.02-1.82l-0.03-0.91l-0.04-0.92h0.1
		l0.44,1l0.45,1c0.42,0.95,0.73,1.61,0.93,1.99l3.97,7.62h4.47V7.39H56.16z M44.36,9.61V7.39h-9.5v13.88h9.56v-2.22H37.5v-3.93h6.51
		v-1.94H37.5V9.61H44.36z"/>
	<path fill="#EB5B0C" d="M289.61,17.82h1.94c0.67,0,1.09,0.06,1.26,0.19c0.17,0.12,0.26,0.43,0.26,0.91c0,0.47-0.08,0.77-0.24,0.91
		c-0.16,0.15-0.5,0.22-1.01,0.22l-0.53,0.01h-1.66V17.82z M289.61,14.62h2.17c0.73,0,1.09,0.32,1.09,0.96
		c0,0.48-0.08,0.79-0.25,0.92c-0.17,0.13-0.55,0.2-1.15,0.2h-1.86V14.62z M292.24,21.35c0.88,0,1.49-0.16,1.84-0.49
		c0.35-0.33,0.53-0.9,0.53-1.72c0-1.13-0.46-1.76-1.37-1.9V17.2c0.78-0.17,1.18-0.76,1.18-1.75c0-0.82-0.17-1.37-0.5-1.67
		c-0.33-0.29-0.96-0.44-1.88-0.44h-3.93v8H292.24z M281.56,14.62h2.26c0.71,0,1.16,0.16,1.35,0.48c0.19,0.32,0.29,1.07,0.29,2.25
		c0,1.14-0.11,1.88-0.32,2.21c-0.21,0.33-0.68,0.5-1.41,0.5h-2.16V14.62z M284.02,21.35c1.26,0,2.07-0.28,2.43-0.85
		c0.36-0.57,0.54-1.85,0.54-3.85c0-1.22-0.22-2.08-0.67-2.57c-0.45-0.49-1.23-0.73-2.35-0.73h-3.93v8H284.02z M276.11,13.35
		l-1.41,3.71c-0.11,0.27-0.23,0.64-0.38,1.1l-0.18,0.55l-0.17,0.55h-0.05l-0.18-0.55l-0.18-0.56c-0.16-0.48-0.29-0.85-0.39-1.11
		l-1.43-3.7h-2.47v8h1.52v-4.36c0-0.32-0.01-0.71-0.04-1.17l-0.03-0.59l-0.03-0.58h0.05l0.18,0.55l0.18,0.56
		c0.16,0.49,0.29,0.86,0.39,1.11l1.78,4.48h1.38l1.76-4.51c0.09-0.24,0.22-0.61,0.38-1.11l0.18-0.56l0.18-0.56h0.05l-0.03,0.59
		l-0.03,0.6c-0.02,0.44-0.03,0.84-0.03,1.18v4.36h1.52v-8H276.11z M267.02,13.35l-1.18,4.38c-0.08,0.31-0.17,0.7-0.28,1.17
		l-0.12,0.59l-0.13,0.59h-0.05l-0.14-0.59l-0.14-0.58c-0.1-0.4-0.2-0.79-0.3-1.17l-1.2-4.39h-1.78l-1.23,4.39
		c-0.13,0.47-0.24,0.86-0.31,1.17l-0.14,0.58c-0.03,0.13-0.08,0.33-0.14,0.59h-0.05l-0.12-0.59l-0.12-0.59
		c-0.1-0.5-0.19-0.88-0.26-1.17l-1.15-4.39h-1.55l2.07,8h2.22l1.14-4.1c0.09-0.33,0.18-0.66,0.26-1l0.11-0.49l0.12-0.5h0.05
		l0.11,0.49c0.14,0.62,0.26,1.12,0.36,1.49l1.11,4.1h2.24l2.14-8H267.02z M252.27,15.74l-0.54,2.37l-0.27,1.19
		c-0.02,0.09-0.06,0.29-0.12,0.6l-0.12,0.59h-0.03l-0.17-0.59c-0.09-0.32-0.14-0.52-0.16-0.6l-0.35-1.19l-0.7-2.37h-1.44l1.83,5.6
		h0.69c-0.15,0.99-0.51,1.49-1.08,1.49c-0.08,0-0.18,0-0.29-0.01v0.99c0.16,0.02,0.32,0.02,0.47,0.02c0.68,0,1.17-0.15,1.47-0.44
		c0.31-0.29,0.56-0.86,0.77-1.7l1.47-5.95H252.27z M246.37,17.07c0.15,0.22,0.23,0.7,0.23,1.44c0,0.79-0.08,1.29-0.23,1.51
		c-0.15,0.22-0.5,0.33-1.05,0.33c-0.52,0-0.86-0.12-1.01-0.36c-0.15-0.24-0.22-0.78-0.22-1.63c0-1.08,0.43-1.62,1.31-1.62
		C245.89,16.73,246.22,16.85,246.37,17.07 M244.07,21.35l-0.06-0.89h0.03c0.27,0.63,0.85,0.95,1.72,0.95c0.86,0,1.44-0.2,1.74-0.61
		c0.3-0.41,0.45-1.19,0.45-2.35c0-1.06-0.15-1.79-0.45-2.18c-0.3-0.39-0.85-0.59-1.66-0.59c-0.94,0-1.52,0.3-1.75,0.88l-0.03-0.01
		v-3.2h-1.34v8H244.07z"/>
</g>
<path fill="#FFFFFF" d="M15.9,18.14H8.02v1.97h7.88V18.14z M8.02,10.2h7.88V8.23H8.02V10.2z M20.59,20.11V8.23h-1.97v4.96H8.02v1.97
	h10.6v4.96H20.59z"/>
<path fill="#EB5B0C" d="M14.17,28.35C6.36,28.35,0,21.99,0,14.17C0,6.36,6.36,0,14.17,0c7.81,0,14.17,6.36,14.17,14.17
	C28.35,21.99,21.99,28.35,14.17,28.35z M14.17,1C6.91,1,1,6.91,1,14.17s5.91,13.17,13.17,13.17s13.17-5.91,13.17-13.17
	S21.44,1,14.17,1z"/>
</svg>
